<svg width="110" height="19" viewBox="0 0 110 19" fill="none" xmlns="http://www.w3.org/2000/svg">
<path fill-rule="evenodd" clip-rule="evenodd" d="M54.6711 12.1644L54.7921 12.1645L55.0629 12.1654C57.1326 12.179 61.8625 12.3881 61.8625 15.5939C61.8625 18.7787 57.2975 18.9865 55.0952 19L54.2792 19C52.2094 18.9864 47.4786 18.7776 47.4786 15.5757C47.4786 12.3869 52.2094 12.1789 54.2792 12.1654L54.55 12.1645C54.592 12.1644 54.6324 12.1644 54.6711 12.1644ZM54.6711 13.7725C52.1239 13.7725 49.0867 14.0856 49.0867 15.5757C49.0867 17.0322 51.9426 17.3727 54.4383 17.392L54.6711 17.3929C57.2183 17.3929 60.2544 17.0809 60.2544 15.5939C60.2544 14.0888 57.2183 13.7725 54.6711 13.7725ZM63.1978 11.7294C65.7954 12.1185 66.3411 13.3385 66.3411 14.2937C66.3411 14.8769 66.1117 15.9415 64.5786 16.5258C64.4843 16.5612 64.3878 16.5783 64.2924 16.5783C63.9686 16.5783 63.6631 16.381 63.5409 16.0605C63.3822 15.6456 63.5913 15.1803 64.0061 15.0227C64.733 14.7462 64.733 14.4406 64.733 14.2937C64.733 13.8242 64.1359 13.4961 62.9587 13.3203C62.5203 13.2538 62.2169 12.8454 62.2823 12.4048C62.3477 11.9652 62.755 11.6726 63.1978 11.7294ZM47.0588 12.4048C47.1242 12.8454 46.8208 13.2538 46.3823 13.3203C45.2052 13.4961 44.6081 13.8242 44.6081 14.2937C44.6081 14.4406 44.6081 14.7451 45.336 15.0227C45.7509 15.1803 45.96 15.6456 45.8013 16.0605C45.6791 16.381 45.3735 16.5783 45.0498 16.5783C44.9544 16.5783 44.8579 16.5612 44.7635 16.5258C43.2294 15.9404 43 14.8759 43 14.2937C43 13.3396 43.5457 12.1185 46.1443 11.7294C46.5871 11.6736 46.9923 11.9652 47.0588 12.4048ZM54.6711 1C57.3727 1 59.5693 3.19772 59.5693 5.89824C59.5693 8.59875 57.3727 10.7965 54.6711 10.7965H54.6421C53.3342 10.7922 52.1089 10.2797 51.1912 9.35349C50.2713 8.4283 49.7686 7.19972 49.7739 5.89502C49.7739 3.19772 51.9706 1 54.6711 1ZM54.6711 2.60809C52.8572 2.60809 51.382 4.08431 51.382 5.89824C51.3788 6.77733 51.7154 7.5996 52.3318 8.22032C52.9483 8.84104 53.7695 9.18517 54.6443 9.18839L54.6711 9.99243V9.18839C56.485 9.18839 57.9612 7.71323 57.9612 5.89824C57.9612 4.08431 56.485 2.60809 54.6711 2.60809ZM61.3061 2.05008C63.1907 2.35991 64.5598 3.97228 64.5598 5.88377C64.5555 7.80811 63.1178 9.45908 61.2149 9.72603C61.1774 9.73139 61.1399 9.73353 61.1034 9.73353C60.7089 9.73353 60.3648 9.443 60.308 9.04098C60.2469 8.60036 60.5524 8.19405 60.993 8.13295C62.108 7.97643 62.9495 7.00943 62.9517 5.88162C62.9517 4.76346 62.1498 3.81791 61.0445 3.63673C60.6071 3.5649 60.3101 3.15109 60.3819 2.71261C60.4548 2.27414 60.8654 1.9804 61.3061 2.05008ZM48.9602 2.71261C49.032 3.15109 48.7351 3.5649 48.2977 3.63673C47.1924 3.81791 46.3905 4.76346 46.3905 5.88377C46.3926 7.00943 47.2342 7.9775 48.3481 8.13295C48.7887 8.19405 49.0942 8.60036 49.0331 9.04098C48.9763 9.443 48.6322 9.73353 48.2377 9.73353C48.2012 9.73353 48.1637 9.73139 48.1262 9.72603C46.2233 9.45908 44.7867 7.80811 44.7824 5.88591C44.7824 3.97228 46.1514 2.35991 48.0361 2.05008C48.4874 1.97933 48.8873 2.27629 48.9602 2.71261Z" fill="#696C85"/>
<path fill-rule="evenodd" clip-rule="evenodd" d="M99.8139 16.8844C100.272 17.3943 100.859 17.6744 101.469 17.6744H101.47C102.082 17.6744 102.673 17.3943 103.131 16.8835C103.377 16.6122 103.796 16.5901 104.067 16.8349C104.339 17.0797 104.362 17.4994 104.117 17.7707C103.403 18.5634 102.463 19 101.47 19H101.468C100.478 18.9991 99.5399 18.5626 98.8285 17.7699C98.5837 17.4986 98.6058 17.0788 98.878 16.8349C99.1502 16.5892 99.5691 16.6113 99.8139 16.8844ZM101.513 0C105.441 0 108.08 3.05944 108.08 5.91651C108.08 7.38614 108.454 8.00916 108.851 8.67019C109.243 9.32237 109.688 10.0629 109.688 11.4627C109.379 15.0392 105.645 15.3308 101.513 15.3308C97.3808 15.3308 93.6462 15.0392 93.3413 11.5193C93.3387 10.0629 93.7832 9.32237 94.1756 8.67019L94.3141 8.43702C94.6551 7.85085 94.9462 7.21324 94.9462 5.91651C94.9462 3.05944 97.585 0 101.513 0ZM101.513 1.32558C98.4245 1.32558 96.2718 3.74521 96.2718 5.91651C96.2718 7.75377 95.7618 8.60302 95.3111 9.35242C94.9497 9.95423 94.6643 10.4297 94.6643 11.4627C94.8118 13.1294 95.9121 14.0052 101.513 14.0052C107.083 14.0052 108.218 13.0906 108.365 11.4053C108.362 10.4297 108.076 9.95423 107.715 9.35242C107.264 8.60302 106.754 7.75377 106.754 5.91651C106.754 3.74521 104.602 1.32558 101.513 1.32558Z" fill="#696C85"/>
<path fill-rule="evenodd" clip-rule="evenodd" d="M7.68945 1C11.9293 1 15.3781 4.44876 15.3781 8.68866C15.3781 10.689 14.6104 12.5135 13.3542 13.8827L15.8261 16.3494C16.0574 16.5808 16.0582 16.955 15.8269 17.1864C15.7116 17.3032 15.5592 17.3609 15.4076 17.3609C15.2568 17.3609 15.1052 17.3032 14.9892 17.188L12.4874 14.6932C11.1714 15.7471 9.5028 16.3781 7.68945 16.3781C3.44955 16.3781 0 12.9286 0 8.68866C0 4.44876 3.44955 1 7.68945 1ZM7.68945 2.18433C4.10251 2.18433 1.18433 5.10172 1.18433 8.68866C1.18433 12.2756 4.10251 15.1938 7.68945 15.1938C11.2756 15.1938 14.1938 12.2756 14.1938 8.68866C14.1938 5.10172 11.2756 2.18433 7.68945 2.18433Z" fill="#696C85"/>
</svg>
